<?xml version="1.0" standalone="no"?>
<!DOCTYPE svg PUBLIC "-//W3C//DTD SVG 20010904//EN"
 "http://www.w3.org/TR/2001/REC-SVG-20010904/DTD/svg10.dtd">
<svg version="1.0" xmlns="http://www.w3.org/2000/svg"
 width="5167.000000pt" height="5167.000000pt" viewBox="0 0 5167.000000 5167.000000"
 preserveAspectRatio="xMidYMid meet">

<g transform="translate(0.000000,5167.000000) scale(0.100000,-0.100000)"
fill="#000000" stroke="none">
<path d="M28730 16075 l0 -75 75 0 75 0 0 75 0 75 -75 0 -75 0 0 -75z"/>
<path d="M29060 16075 l0 -75 75 0 75 0 0 75 0 75 -75 0 -75 0 0 -75z"/>
<path d="M26610 15118 l0 -818 75 0 75 0 2 582 3 583 429 -595 c236 -327 435
-602 442 -610 12 -12 14 111 14 798 l0 812 -75 0 -75 0 -2 -580 -3 -579 -430
595 c-236 328 -435 604 -442 613 -10 13 -12 -157 -13 -801z"/>
<path d="M43230 15116 l0 -816 75 0 75 0 2 581 3 581 410 -568 c226 -312 425
-588 443 -613 l32 -46 0 818 0 817 -75 0 -75 0 -2 -581 -3 -581 -335 463
c-184 255 -383 531 -442 613 l-108 149 0 -817z"/>
<path d="M22880 15112 l0 -813 73 3 72 3 5 576 5 577 440 -609 c241 -335 441
-609 442 -609 2 0 3 367 3 815 l0 815 -75 0 -75 0 0 -582 c0 -501 -2 -580 -14
-568 -8 8 -204 278 -436 600 -232 322 -426 589 -431 595 -5 5 -9 -320 -9 -803z"/>
<path d="M21675 15138 c-175 -425 -325 -788 -332 -806 l-14 -33 83 3 83 3 64
158 65 157 374 0 373 0 13 -32 c8 -18 37 -90 66 -160 l52 -128 80 0 c72 0 80
2 75 18 -9 33 -649 1577 -656 1585 -4 4 -151 -340 -326 -765z m478 10 c81
-196 147 -362 147 -368 0 -7 -100 -10 -306 -10 -287 0 -306 1 -300 18 54 143
302 730 307 724 3 -4 72 -168 152 -364z"/>
<path d="M35951 15889 c-5 -13 -153 -374 -330 -802 -177 -429 -321 -781 -321
-783 0 -3 36 -4 81 -2 l81 3 39 95 c22 52 51 123 65 158 l26 62 373 0 373 0
52 -127 c29 -71 58 -143 66 -160 l13 -33 82 0 c73 0 80 2 74 18 -38 101 -650
1579 -656 1586 -5 5 -12 -1 -18 -15z m169 -739 c82 -201 150 -368 150 -372 0
-4 -137 -8 -305 -8 -168 0 -305 3 -305 8 0 12 303 743 306 739 2 -2 71 -167
154 -367z"/>
<path d="M18022 15860 c-296 -54 -533 -292 -599 -604 -22 -104 -13 -317 17
-411 114 -358 431 -578 773 -535 166 20 294 85 420 211 l77 78 0 276 0 275
-345 0 -345 0 0 -75 0 -75 270 0 270 0 0 -171 0 -170 -57 -54 c-64 -62 -163
-117 -242 -135 -81 -19 -214 -15 -292 9 -119 37 -236 132 -313 253 -117 185
-128 455 -26 662 113 230 363 360 601 311 86 -17 155 -47 227 -99 l44 -31 43
50 c25 28 44 55 45 61 0 13 -95 81 -155 112 -112 56 -293 83 -413 62z"/>
<path d="M18922 15088 l3 -783 428 -3 427 -2 0 75 0 75 -352 2 -353 3 -3 273
-2 272 355 0 355 0 0 75 0 75 -355 0 -355 0 2 283 3 282 353 3 352 2 0 75 0
75 -430 0 -430 0 2 -782z"/>
<path d="M19992 15088 l3 -783 195 -3 c218 -3 327 7 421 38 310 103 528 447
505 795 -21 326 -228 605 -521 702 -77 25 -91 27 -343 31 l-262 4 2 -784z
m548 607 c152 -47 276 -153 348 -296 57 -113 76 -192 76 -314 0 -213 -91 -400
-253 -522 -111 -84 -245 -117 -456 -111 l-110 3 -3 620 c-1 341 0 626 3 634 8
20 319 10 395 -14z"/>
<path d="M24130 15085 l0 -785 75 0 75 0 0 328 0 328 53 52 54 53 367 -381
368 -380 100 0 c56 0 98 4 96 9 -1 5 -185 197 -408 427 -223 230 -405 422
-405 428 0 6 159 166 353 356 l353 345 -106 3 -106 3 -357 -350 -357 -349 -3
349 -2 349 -75 0 -75 0 0 -785z"/>
<path d="M25540 15085 l0 -785 428 2 427 3 3 73 3 72 -356 0 -355 0 0 275 0
275 355 0 355 0 0 75 0 75 -355 0 -355 0 0 285 0 285 355 0 356 0 -3 73 -3 72
-427 3 -428 2 0 -785z"/>
<path d="M28460 15328 c0 -606 2 -627 66 -748 60 -114 162 -197 307 -248 92
-32 239 -36 331 -8 145 43 282 150 340 263 54 107 56 131 56 731 l0 552 -75 0
-75 0 0 -544 c0 -515 -1 -547 -20 -608 -11 -36 -35 -85 -54 -110 -37 -48 -118
-107 -176 -127 -239 -84 -503 53 -539 279 -7 39 -11 274 -11 588 l0 522 -75 0
-75 0 0 -542z"/>
<path d="M29772 15088 l3 -783 345 0 c336 1 347 1 402 23 124 50 215 138 259
249 32 81 32 214 0 296 -28 70 -85 144 -145 188 l-46 32 46 49 c87 93 128 230
107 354 -32 184 -172 331 -348 363 -33 6 -180 11 -342 11 l-283 0 2 -782z
m663 600 c226 -119 208 -443 -28 -522 -38 -13 -92 -16 -267 -16 l-220 0 0 278
c0 153 3 282 7 286 5 4 109 6 233 4 221 -3 226 -4 275 -30z m23 -703 c71 -21
131 -70 167 -135 25 -47 29 -66 29 -125 -2 -115 -56 -201 -157 -246 -50 -23
-60 -24 -312 -24 l-260 0 -3 273 -2 272 243 0 c189 0 255 -3 295 -15z"/>
<path d="M31020 15085 l0 -785 430 0 430 0 0 75 0 75 -355 0 -355 0 0 275 0
275 355 0 355 0 0 75 0 75 -355 0 -355 0 0 285 0 285 355 0 355 0 0 75 0 75
-430 0 -430 0 0 -785z"/>
<path d="M32090 15086 l0 -786 75 0 75 0 0 350 0 350 187 -2 186 -3 181 -345
181 -345 83 -3 c52 -2 82 1 82 8 0 5 -84 168 -186 361 -102 193 -184 352 -182
353 149 68 224 144 268 275 58 172 -6 368 -158 483 -103 78 -121 81 -479 86
l-313 3 0 -785z m652 606 c219 -108 223 -415 6 -513 -50 -23 -66 -24 -280 -27
l-228 -3 0 286 0 287 228 -4 c213 -3 230 -4 274 -26z"/>
<path d="M33960 15086 l0 -786 208 0 c328 1 420 21 576 124 112 75 191 167
252 291 64 132 86 225 86 370 0 146 -22 238 -87 370 -95 194 -260 334 -461
391 -46 13 -116 18 -316 21 l-258 5 0 -786z m561 605 c197 -62 348 -240 400
-468 15 -68 12 -229 -6 -298 -56 -218 -220 -396 -416 -451 -33 -9 -120 -18
-221 -21 l-168 -6 0 638 0 638 173 -6 c136 -4 186 -9 238 -26z"/>
<path d="M37235 15854 c-164 -35 -297 -130 -357 -252 -28 -57 -32 -75 -32
-147 0 -73 4 -90 32 -148 38 -77 117 -154 201 -197 31 -15 146 -58 255 -94
226 -75 283 -103 336 -163 97 -111 68 -246 -71 -331 -74 -45 -148 -65 -240
-64 -192 1 -345 102 -364 242 l-7 50 -75 0 -76 0 7 -62 c33 -313 458 -484 794
-320 83 40 173 128 208 204 24 53 29 76 29 143 0 100 -29 169 -106 250 -80 84
-84 86 -542 248 -171 59 -252 165 -225 292 8 40 20 60 63 101 155 152 468 143
608 -17 l43 -49 55 40 c29 23 55 45 57 49 5 15 -96 118 -148 151 -114 73 -305
105 -445 74z"/>
<path d="M38690 15085 l0 -785 465 0 465 0 0 75 0 75 -390 0 -390 0 0 710 0
710 -75 0 -75 0 0 -785z"/>
<path d="M39840 15085 l0 -785 428 2 427 3 3 73 3 72 -356 0 -355 0 0 275 0
275 355 0 355 0 0 75 0 75 -355 0 -355 0 0 285 0 285 355 0 356 0 -3 73 -3 72
-427 3 -428 2 0 -785z"/>
<path d="M40910 15085 l0 -785 308 0 c336 0 394 6 488 50 75 36 165 128 202
207 24 52 27 69 27 168 0 104 -2 114 -33 177 -22 45 -52 85 -97 127 -36 34
-71 61 -76 61 -6 0 10 21 35 47 26 26 61 76 79 112 30 62 32 71 32 181 0 114
-1 117 -38 192 -26 54 -54 91 -93 128 -120 109 -170 120 -546 120 l-288 0 0
-785z m599 624 c78 -17 149 -73 189 -149 32 -61 34 -70 30 -140 -6 -90 -28
-139 -91 -197 -70 -64 -113 -73 -364 -73 l-213 0 0 285 0 285 200 0 c109 0
221 -5 249 -11z m121 -735 c212 -98 213 -400 2 -497 -44 -20 -66 -22 -309 -25
l-263 -3 0 276 0 276 263 -3 c241 -3 266 -5 307 -24z"/>
<path d="M42160 15085 l0 -785 425 0 425 0 0 75 0 75 -350 0 -350 0 0 275 0
275 350 0 350 0 0 75 0 75 -350 0 -350 0 0 285 0 285 350 0 350 0 0 75 0 75
-425 0 -425 0 0 -785z"/>
<path d="M44480 14375 l0 -75 75 0 75 0 0 75 0 75 -75 0 -75 0 0 -75z"/>
</g>
</svg>
